<?xml version="1.0" encoding="UTF-8"?>
<svg width="236px" height="46px" viewBox="0 0 236 46" version="1.1" xmlns="http://www.w3.org/2000/svg" xmlns:xlink="http://www.w3.org/1999/xlink">
    <!-- Generator: Sketch 53.2 (72643) - https://sketchapp.com -->
    <title>logo</title>
    <desc>Created with Sketch.</desc>
    <defs>
        <polygon id="path-1" points="0.163424802 0.111348056 7.47896292 0.111348056 7.47896292 14.894585 0.163424802 14.894585"/>
        <polygon id="path-3" points="0.0386043442 0.335076541 13.354862 0.335076541 13.354862 7.00886719 0.0386043442 7.00886719"/>
        <polygon id="path-5" points="0 0.312863587 21.7752291 0.312863587 21.7752291 36.4915822 0 36.4915822"/>
    </defs>
    <g id="Symbols" stroke="none" stroke-width="1" fill="none" fill-rule="evenodd">
        <g id="header">
            <g id="logo">
                <g>
                    <path d="M154.828221,41.0689605 L154.877413,38.5916314 L154.877413,30.2030908 C155.664939,30.2341449 156.685576,30.2485785 157.990289,30.2485785 L164.31797,30.2485785 L164.352981,30.132235 C164.532468,29.5299606 164.624205,28.7509841 164.624205,27.8176119 C164.624205,26.8855518 164.532911,26.0899548 164.353867,25.4531273 L164.320186,25.3341595 L157.98763,25.3341595 L154.877413,25.384021 L154.877413,18.2442047 L154.826891,15.0193906 L170.627924,15.0193906 L170.668253,14.9148564 C170.956318,14.1682461 171.102123,13.3149147 171.102123,12.3789182 C171.102123,11.4525441 171.048056,10.6971862 170.940807,10.1325266 L170.915989,10 L149.473313,10 L149,10.4006415 L149,42.3955387 C149,43.5117364 149.308451,44.4000583 149.916933,45.0364485 C150.527188,45.6759003 151.358145,46 152.387645,46 L168.084088,46 C170.244133,46 171.508074,45.0779997 171.83824,43.2646158 C171.945932,42.7686252 172,42.0373232 172,41.0917043 L172,40.9294358 L158.148503,40.9294358 C156.951925,40.9294358 155.835562,40.9762356 154.828221,41.0689605" id="Fill-1" fill="#003747"/>
                    <path d="M183.48659,41.4182372 L181.457686,41.4182372 C180.207794,41.4182372 179.600208,40.7075218 179.600208,39.2460262 L179.600208,13.5840612 C179.600208,12.3416157 179.370628,11.4266567 178.917976,10.864007 C178.455776,10.2909056 177.656367,10 176.541446,10 L174.463067,10 L174,10.3993419 L174,40.4893427 C174,44.1461302 175.777623,46 179.284698,46 C180.836646,46 182.325666,45.8750151 183.711397,45.6294002 L183.811648,45.6111098 L183.83899,45.5118186 C183.945751,45.1150896 184,44.5702949 184,43.8935475 C184,43.2137517 183.839858,42.4172453 183.524781,41.5253671 L183.48659,41.4182372 Z" id="Fill-3" fill="#003747"/>
                    <path d="M189.526762,20 L188.781891,20 C187.726583,20 186.592328,20.0692061 185.410348,20.2063287 L185.293934,20.2196541 L185.268956,20.3309857 C185.090544,21.1232021 185,21.7899018 185,22.3126013 C185,22.83745 185.090544,23.4869557 185.268956,24.2447839 L185.298394,24.3685812 L186.016503,24.3685812 C186.810883,24.3685812 187.37645,24.5568561 187.696699,24.9265285 C188.024532,25.3060874 188.190901,25.961611 188.190901,26.8750455 L188.190901,45.7648712 L188.32248,45.7910922 C189.00446,45.9299342 189.93711,46 191.095004,46 C192.251115,46 193.184657,45.9299342 193.868421,45.7910922 L194,45.7648712 L194,24.7214893 C194,23.2879344 193.601249,22.1312039 192.814005,21.2835367 C192.022748,20.4320008 190.916146,20 189.526762,20" id="Fill-5" fill="#003747"/>
                    <path d="M209.547852,31.1853537 L216.865854,19.2904253 L216.909273,19.219013 L216.696127,18.6281556 L216.618939,18.6035934 C215.802757,18.3470548 214.924737,18.2169661 214.008562,18.2169661 C213.098087,18.2169661 212.312167,18.2911076 211.67273,18.4375711 L211.604752,18.4530362 L206.736171,26.6922902 L202.427207,19.7516489 C201.630761,18.589038 200.591785,18 199.339664,18 C198.105963,18 196.9034,18.4489425 195.763553,19.3350011 L195.642507,19.4296111 L203.198654,31.5665226 L195,44.7805322 L195.212707,45.366841 L195.283317,45.3927678 C196.063974,45.6879691 197.015236,45.8371617 198.110348,45.8371617 C199.217741,45.8371617 199.97033,45.76393 200.410655,45.6115533 L200.467231,45.5924494 L206.011651,36.166932 L211.104342,44.2483511 C211.899472,45.4105072 212.912133,46 214.113819,46 C215.290506,46 216.552276,45.5533318 217.863166,44.6713668 L218,44.5790312 L209.547852,31.1853537 Z" id="Fill-7" fill="#003747"/>
                    <path d="M187.503811,14.2977121 L187.533113,14.3194754 C188.149319,14.7710658 189.164813,15 190.555979,15 C191.999188,14.9665179 192.904036,14.773577 193.32038,14.4107143 C193.741534,14.0457589 193.963701,13.2589286 194,11.9962333 C193.963701,10.672433 193.739348,9.8671875 193.314257,9.53445871 C192.9001,9.20968192 191.997438,9.03473772 190.547232,9 C189.293827,9.03473772 188.418718,9.17871094 187.872048,9.44070871 C187.285143,9.72154018 187,10.5585938 187,12.0004185 C187,12.8860212 187.164001,13.648577 187.487192,14.265904 L187.503811,14.2977121 Z" id="Fill-9" fill="#003747"/>
                    <g id="Group-13" transform="translate(207.000000, 0.000000)">
                        <mask id="mask-2" fill="white">
                            <use xlink:href="#path-1"/>
                        </mask>
                        <g id="Clip-12"/>
                        <path d="M5.30862365,14.894585 C4.37062663,14.894585 3.50587697,14.2687473 3.22882962,13.303144 L0.251970904,2.95129564 C-0.0858286663,1.77795999 0.572535802,0.546529709 1.72208842,0.201922878 C2.87077931,-0.143564174 4.07634461,0.528925273 4.41371331,1.70314114 L7.39057203,12.0545494 C7.72794073,13.2283251 7.07000713,14.4593153 5.92045451,14.8043622 C5.71665451,14.8655377 5.51113105,14.894585 5.30862365,14.894585" id="Fill-11" fill="#F1C400" mask="url(#mask-2)"/>
                    </g>
                    <path d="M219.237749,15 C218.939772,15 218.636014,14.9426696 218.345153,14.8216388 C217.211508,14.3502556 216.69294,13.0906857 217.187047,12.0086276 L220.708953,4.28473775 C221.201726,3.20267972 222.521273,2.70666568 223.654919,3.17847355 C224.788119,3.64943209 225.306687,4.909002 224.81347,5.9914847 L221.291119,13.7153746 C220.924652,14.5196987 220.101436,15 219.237749,15" id="Fill-14" fill="#F1C400"/>
                    <g id="Group-18" transform="translate(222.000000, 13.000000)">
                        <mask id="mask-4" fill="white">
                            <use xlink:href="#path-3"/>
                        </mask>
                        <g id="Clip-17"/>
                        <path d="M2.25802776,7.00886719 C1.26415499,7.00886719 0.359391098,6.33705837 0.106180726,5.32956569 C-0.192907484,4.14033615 0.528786191,2.93390337 1.7180809,2.63439044 L10.5927957,0.402820628 C11.7794436,0.103307699 12.9885893,0.824961824 13.2876775,2.01463247 C13.5867657,3.203862 12.865072,4.40985368 11.6757773,4.70936661 L2.80106255,6.94137753 C2.61931573,6.98681174 2.43712778,7.00886719 2.25802776,7.00886719" id="Fill-16" fill="#F1C400" mask="url(#mask-4)"/>
                    </g>
                    <path d="M70.3571519,19.6625393 C69.3068426,16.892237 67.1355258,15.5066505 63.8440853,15.5066505 L60.5871102,15.5066505 C59.6415225,15.5066505 58.8192147,15.4896735 58.1188613,15.4544135 L58.1188613,40.5455865 C58.7838657,40.5116324 59.5451963,40.4937848 60.4037369,40.4937848 C61.2613938,40.4937848 62.1278879,40.4768077 63.0036612,40.4419831 C63.8785507,40.4075937 64.6929049,40.3379444 65.4458402,40.2339057 C66.1987754,40.129867 66.8200353,39.9574849 67.3109456,39.7145828 C68.2207423,39.2300846 68.9648403,38.5801693 69.5432395,37.7661427 C70.120755,36.9529867 70.5674789,36.0179444 70.8829693,34.9610157 C71.1975761,33.9049577 71.4167403,32.7622733 71.5395783,31.5325272 C71.6615326,30.3036518 71.7233935,29.0308102 71.7233935,27.7144377 C71.7233935,26.2256832 71.6270673,24.840532 71.433973,23.558549 C71.2413205,22.2778718 70.8829693,20.9789117 70.3571519,19.6625393 M73.2522409,43.4029504 C72.1979548,44.3036034 70.7649918,44.9613543 68.9551193,45.3770738 C67.1439212,45.7923579 65.2903043,46 63.3916172,46 C62.4424946,46 60.9746244,45.9821524 58.9888903,45.9481983 C57.0022724,45.9133736 54.4624416,45.8611366 51.3693978,45.7923579 L51,45.4806771 L51,10.5197582 L51.3693978,10.2080774 C53.4077137,10.1388634 55.4557505,10.0870617 57.5126247,10.052237 C59.5686151,10.0178476 61.6687918,10 63.8135968,10 C66.7665699,10 69.2184699,10.4675212 71.1697387,11.4025635 C73.1205656,12.3376058 74.6759248,13.628295 75.836258,15.27289 C76.9961495,16.9183555 77.8135968,18.8311004 78.2881581,21.0133011 C78.7627194,23.1950665 79,25.5326723 79,28.0261185 C79,31.4894317 78.6045323,34.4769528 77.8135968,36.9869407 C77.0226613,39.4986699 75.5017675,41.6364692 73.2522409,43.4029504" id="Fill-19" fill="#1898BC"/>
                    <path d="M84.2564565,8.69856584 C85.0424133,8.23330568 86.1708564,8 87.6409265,8 C88.4952086,8 89.1874866,8.07206353 89.7177603,8.2148394 C90.2476043,8.35851606 90.6322032,8.52876615 90.8719866,8.72558966 C91.1104809,8.92286358 91.2643204,9.28948678 91.3330755,9.82726087 C91.4014009,10.3645846 91.4357784,10.9208249 91.4357784,11.49373 C91.3330755,13.3209909 91.119505,14.3244755 90.7946371,14.5032832 C90.4693395,14.6829916 89.4014868,14.8622496 87.5897899,15.0410572 C85.6745305,14.9694441 84.5551115,14.7010075 84.2306734,14.2348465 C83.9053758,13.7695863 83.7438013,12.8557307 83.7438013,11.49373 C83.7438013,10.454664 83.9143999,9.52324286 84.2564565,8.69856584 M92,24.5007467 L92,45.7315634 C91.486915,45.8387579 90.9484766,45.910371 90.3846848,45.9464027 C89.8204632,45.9815337 89.2476473,46 88.6666667,46 C88.0848266,46 87.5128701,45.9815337 86.9486485,45.9464027 C86.384427,45.910371 85.8283701,45.8387579 85.2821967,45.7315634 L85.2821967,27.0270238 C85.2821967,25.0565367 84.512999,24.0706175 82.9746036,24.0706175 L82.3076791,24.0706175 C82.1027029,23.2828731 82,22.458196 82,21.5983881 C82,20.8106436 82.1027029,19.9859666 82.3076791,19.1257082 C83.0936359,19.0545455 83.8202913,18.9914899 84.4872158,18.9374422 C85.1537106,18.883845 85.7256671,18.8572715 86.205234,18.8572715 L87.0767049,18.8572715 C88.6155301,18.8572715 89.8204632,19.3590139 90.6923639,20.3620481 C91.5638348,21.3655328 92,22.745099 92,24.5007467" id="Fill-21" fill="#1898BC"/>
                    <path d="M111.881445,29.755773 C111.881445,27.6185633 111.632045,25.9976332 111.134549,24.8929828 C110.636183,23.7892279 109.631631,23.2366788 108.121327,23.2366788 C105.373148,23.2366788 104.000145,26.1937568 104.000145,32.1070172 C104.000145,35.0282735 104.395535,37.148468 105.187619,38.4658095 C105.980137,39.7840466 107.25451,40.4427173 109.011173,40.4427173 C109.905363,40.4427173 110.869507,40.2474893 111.90317,39.8552421 C112.936398,39.4634427 114.003952,38.8396981 115.105831,37.9849037 C115.65677,38.3413292 116.199019,38.919849 116.732579,39.7213587 C117.267007,40.5228683 117.602872,41.2800486 117.740607,41.9924519 C116.564864,43.2036717 115.121907,44.1748865 113.411301,44.9047528 C111.699826,45.6341713 109.911011,46 108.044422,46 C104.414653,46 101.666908,44.7269878 99.7998841,42.1791723 C97.9332947,39.6331478 97,36.1329239 97,31.6793961 C97,29.4002431 97.3024083,27.4045289 97.9076595,25.6944924 C98.5120417,23.984456 99.3336713,22.560545 100.370376,21.4196252 C101.407515,20.2800486 102.591078,19.4252543 103.92237,18.8547943 C105.252793,18.2856777 106.64448,18 108.096561,18 C109.616858,18 110.991165,18.2229898 112.218178,18.6680739 C113.445192,19.1136058 114.481896,19.7189919 115.329595,20.4846798 C116.176426,21.2512634 116.832947,22.150387 117.300029,23.1829463 C117.766676,24.216849 118,25.3031408 118,26.4427173 C118,27.5831894 117.714537,28.46485 117.144045,29.0876991 C116.573988,29.7114437 115.718468,30.0230922 114.577485,30.0230922 C113.54078,30.0230922 112.641376,29.9344336 111.881445,29.755773" id="Fill-23" fill="#1898BC"/>
                    <path d="M132.474345,23.2366788 C129.45528,23.2366788 127.946179,26.1579351 127.946179,32 C127.946179,37.8071387 129.45528,40.7100365 132.474345,40.7100365 C135.527042,40.7100365 137.053821,37.8071387 137.053821,32 C137.053821,26.1579351 135.527042,23.2366788 132.474345,23.2366788 M140.347112,20.9924519 C142.78194,23.5223566 144,27.1909422 144,32 C144,34.1372097 143.743022,36.0706838 143.228202,37.7977356 C142.713814,39.5256829 141.967887,40.9957142 140.989989,42.2064863 C140.012092,43.4177061 138.803517,44.3530992 137.362541,45.0113222 C135.921995,45.6704407 134.292166,46 132.474345,46 C130.655662,46 129.034887,45.6704407 127.61202,45.0113222 C126.188291,44.3530992 124.987908,43.4177061 124.010011,42.2064863 C123.032544,40.9957142 122.286186,39.5256829 121.771798,37.7977356 C121.256978,36.0706838 121,34.1372097 121,32 C121,27.6902066 121.994282,24.2786413 123.984572,21.7670952 C125.973567,19.2555492 128.803348,18 132.474345,18 C135.698648,18 138.322329,18.9976332 140.347112,20.9924519" id="Fill-25" fill="#1898BC"/>
                    <g id="Group-29" transform="translate(0.000000, 8.000000)">
                        <mask id="mask-6" fill="white">
                            <use xlink:href="#path-5"/>
                        </mask>
                        <g id="Clip-28"/>
                        <path d="M11.9444949,30.4181414 L21.7752291,30.4181414 C21.7752291,31.4654074 21.7043674,32.3556054 21.5635297,33.0882967 C21.1755618,35.3578849 19.6427344,36.4915822 16.9654902,36.4915822 L4.12224737,36.4915822 C2.85426557,36.4915822 1.84980076,36.1169005 1.10973874,35.3657822 C0.370119592,34.6155414 -0.000132865714,33.5945996 -0.000132865714,32.3029569 L-0.000132865714,0.679209253 L0.370119592,0.312863587 L3.01281865,0.312863587 C4.42163811,0.312863587 5.46109088,0.670873244 6.13073408,1.38601508 C6.7999344,2.1020344 7.13519888,3.24450639 7.13519888,4.81562475 L7.13519888,30.6278578 C8.64986803,30.4883393 10.2535572,30.4181414 11.9444949,30.4181414" id="Fill-27" fill="#1898BC" mask="url(#mask-6)"/>
                    </g>
                    <path d="M34.31406,23.0226444 C31.5904511,23.0226444 30.1235211,25.124928 29.9141478,29.328152 L38.609505,29.328152 L38.609505,28.6869443 C38.609505,26.9769078 38.2601105,25.6062816 37.5617605,24.5723789 C36.8629716,23.5393718 35.78099,23.0226444 34.31406,23.0226444 M44.4236747,34.244227 L29.9663814,34.244227 C30.0712875,36.2036717 30.5163704,37.7440031 31.302069,38.8661165 C32.0877676,39.98823 33.4581313,40.5492868 35.414038,40.5492868 C37.438858,40.5492868 39.7617166,39.9443485 42.3808583,38.7326809 C43.3934878,39.8015096 44.0391652,41.2093008 44.3187686,42.9538156 C41.5249297,44.984456 38.172323,46 34.2618264,46 C30.5598252,46 27.7572076,44.8331094 25.8548513,42.5002239 C23.9507392,40.1673383 23,36.7020406 23,32.1070172 C23,29.9693597 23.2436105,28.0372289 23.7330261,26.3088339 C24.2215638,24.5813344 24.9379103,23.1027954 25.8807486,21.8741125 C26.8235869,20.644534 27.9762375,19.6921256 29.3378225,19.0150963 C30.6998464,18.3389625 32.2532471,18 33.9997805,18 C35.78099,18 37.3523872,18.2762745 38.7139722,18.8279281 C40.0759961,19.380925 41.2282077,20.164076 42.171485,21.1791723 C43.1143233,22.1942685 43.8214521,23.396533 44.2928713,24.7859656 C44.7642904,26.1753982 45,27.6897588 45,29.328152 C45,30.218768 44.9477664,31.0646069 44.8428603,31.8661165 C44.7379542,32.6680739 44.597933,33.4610759 44.4236747,34.244227" id="Fill-30" fill="#1898BC"/>
                </g>
            </g>
        </g>
    </g>
</svg>