<?xml version="1.0" encoding="UTF-8"?>
<svg width="100px" height="56px" viewBox="0 0 100 56" version="1.1" xmlns="http://www.w3.org/2000/svg" xmlns:xlink="http://www.w3.org/1999/xlink">
    <!-- Generator: Sketch 55.1 (78136) - https://sketchapp.com -->
    <title>Group</title>
    <desc>Created with Sketch.</desc>
    <g id="Page-1" stroke="none" stroke-width="1" fill="none" fill-rule="evenodd">
        <g id="Group">
            <g id="QIOZ_logo" transform="translate(0.000000, 9.000000)" fill-rule="nonzero">
                <path d="M91.0135878,29.263858 L82.7088747,29.263858 L92.563144,10.7173482 C92.9844417,9.92568501 92.4114547,8.9823325 91.5184807,8.9823325 L73.8643913,8.9823325 L73.8643913,11.5765519 C73.8643913,12.9412021 74.9760414,14.0528523 76.3406916,14.0528523 L84.679175,14.0528523 L74.7911355,32.599362 C74.3698378,33.3910252 74.9428248,34.3343778 75.8357987,34.3343778 L93.4893352,34.3343778 L93.4893352,31.7401583 C93.4898882,30.3755081 92.3776844,29.263858 91.0135878,29.263858 Z" id="Path" fill="#FF3333"></path>
                <path d="M70.2598325,18.2807767 C69.9564538,17.1519646 69.5185478,16.1078549 68.9461144,15.1473405 C68.3731274,14.1873797 67.6993833,13.311014 66.8911118,12.5027425 C66.0994486,11.6939174 65.2064746,11.0201732 64.2465138,10.4477398 C63.269391,9.89191476 62.2252814,9.45400875 61.1130776,9.13402181 C59.9842655,8.81403486 58.8222368,8.66234555 57.6258842,8.66234555 C56.4300853,8.66234555 55.267503,8.83064318 54.1558528,9.13402181 C53.0442027,9.43740044 51.9995394,9.87530644 51.0224166,10.4477398 C50.0452939,11.0207268 49.1694818,11.694471 48.3606567,12.5027425 C47.5689935,13.2944057 46.8780874,14.1702177 46.3056541,15.1473405 C45.732667,16.1244633 45.294761,17.1685729 44.9747741,18.2807767 C44.6547871,19.4095887 44.5030978,20.5716175 44.5030978,21.76797 C44.5030978,22.963769 44.6547871,24.1263513 44.9747741,25.2380015 C45.294761,26.3496516 45.732667,27.3943149 46.3056541,28.3714376 C46.8786411,29.3485604 47.5523852,30.2243724 48.3606567,31.0331976 C49.1694818,31.8248608 50.0452939,32.5157668 51.0224166,33.0882002 C51.9995394,33.6611872 53.043649,34.0990932 54.1558528,34.4190802 C55.267503,34.7390671 56.4300853,34.8907564 57.6258842,34.8907564 C58.8388451,34.8907564 60.0008739,34.7390671 61.1130776,34.4190802 C62.2418897,34.0990932 63.2859993,33.6611872 64.2465138,33.0882002 C65.2064746,32.5152132 66.0828403,31.8414691 66.8911118,31.0331976 C67.6999369,30.2243724 68.373681,29.3485604 68.9461144,28.3714376 C69.5019395,27.3943149 69.9398455,26.3502052 70.2598325,25.2380015 C70.5798194,24.1263513 70.7315132,22.963769 70.7315132,21.76797 C70.7320623,20.5716175 70.580373,19.4090351 70.2598325,18.2807767 Z M65.0547853,24.8842443 C64.7347984,25.6260825 64.3267873,26.2893081 63.832413,26.8905292 C63.7211373,27.0261638 63.6004502,27.1551551 63.4797631,27.2847 C63.4310453,27.337293 63.3867565,27.3932077 63.3363779,27.4446934 C62.6122552,28.1859781 61.7530515,28.7584115 60.7759287,29.1797092 C59.798806,29.6010069 58.7546963,29.8196831 57.6424926,29.8196831 C56.5136805,29.8196831 55.4695708,29.6004532 54.4924481,29.1797092 C53.5153253,28.7584115 52.6732835,28.1859781 51.9319989,27.4446934 C51.1907143,26.7034088 50.6182809,25.861367 50.1969832,24.8842443 C49.7756855,23.9242834 49.5570093,22.8630119 49.5570093,21.76797 C49.5570093,20.6729282 49.7762391,19.6116566 50.1969832,18.6345339 C50.6182809,17.6574111 51.2078762,16.7982074 51.9319989,16.0740847 C52.6561216,15.349962 53.5153253,14.776975 54.4924481,14.3556773 C55.4695708,13.9343796 56.5308424,13.7157034 57.6424926,13.7157034 C58.7375344,13.7157034 59.798806,13.9349332 60.7759287,14.3556773 C61.7530515,14.776975 62.6122552,15.3494084 63.3363779,16.0740847 C63.3884173,16.1261241 63.4332598,16.1836996 63.4836383,16.2368462 C63.6026646,16.3625158 63.7222445,16.4881854 63.832413,16.6216056 C64.3267873,17.2200587 64.7347984,17.8932492 65.0547853,18.6345339 C65.476083,19.6116566 65.6947625,20.6557663 65.6947625,21.76797 C65.6953128,22.8796202 65.4926913,23.9237298 65.0547853,24.8842443 Z" id="Shape" fill="#FF3333"></path>
                <path d="M56.4638555,25.5408265 L61.7868217,22.4583225 C62.3426468,22.1721058 62.3426468,21.3804426 61.7868217,21.059902 L56.4638555,17.977398 C55.9080305,17.6574111 55.2171244,18.0615469 55.2171244,18.6849124 L55.2171244,24.8333121 C55.2171244,25.4738396 55.9080305,25.8608134 56.4638555,25.5408265 Z" id="Path" fill="#FF3333"></path>
                <polygon id="Path" fill="#EE3124" points="22.1112086 27.4496759 22.1045653 27.4496759 22.1112086 27.4563193"></polygon>
                <path d="M26.774271,20.7958298 C26.2605203,14.006349 20.5987444,8.66179194 13.6769507,8.66179194 C6.41634722,8.66179194 0.537555923,14.5405832 0.537555923,21.8011867 C0.537555923,28.3537221 5.3268415,33.7791063 11.5975891,34.7756054 C12.2752085,34.8830059 12.9688827,34.9405814 13.6769507,34.9405814 C14.6573951,34.9405814 15.6107126,34.8348418 16.5263846,34.6322203 C16.8851243,34.553054 17.2388815,34.4600474 17.5848881,34.3509861 L14.9286643,31.6947623 L12.7839767,29.5500747 C12.3770729,29.5030178 11.9829021,29.4183153 11.5975891,29.3131293 C8.26263868,28.3996718 5.81014358,25.3952269 5.81014358,21.8011867 C5.81014358,17.4719515 9.33055358,13.9515415 13.6597887,13.9515415 C17.6479997,13.9515415 20.9480727,16.9404853 21.4430006,20.7958298 C21.485075,21.1252281 21.5094339,21.4607161 21.5094339,21.8011867 C21.5094339,22.0370248 21.4590553,22.2728629 21.4418934,22.5087011 L22.0259526,23.0927603 L25.8043451,26.8711528 C26.461481,25.3044347 26.8153774,23.6031893 26.8153774,21.8006331 C26.8163454,21.462377 26.7991834,21.1279961 26.774271,20.7958298 Z" id="Path" fill="#FF3333"></path>
                <path d="M26.2771286,31.6050773 L24.2387343,29.5838449 L22.1112086,27.4563193 L22.1051189,27.4502296 L22.0270598,27.3721705 L20.3983373,25.7428944 L17.6861988,23.0307559 C16.8773737,22.2219307 15.5636557,22.2219307 14.7548306,23.0307559 L13.6431804,24.142406 C13.0873553,24.6982311 13.0873553,25.5912051 13.6431804,26.1470301 L14.8677671,27.3716168 L14.9458262,27.4496759 L16.5579404,29.0617901 L20.4996481,33.0034978 L22.1117622,34.615612 L22.6897317,35.1935815 C23.3468676,35.8507173 24.3909772,35.8507173 25.048113,35.1935815 L26.2776822,33.9640122 C26.9342644,33.3068764 26.9342644,32.2622132 26.2771286,31.6050773 Z" id="Path" fill="#FF3333"></path>
                <path d="M33.4530296,5.94965346 C33.7392463,6.23587015 34.0930035,6.47170828 34.480531,6.64055952 C34.8680584,6.80885716 35.2888025,6.89300597 35.7438704,6.89300597 C36.1989384,6.89300597 36.6196824,6.80885716 37.0072099,6.64055952 C37.3947373,6.47226189 37.7484945,6.23642376 38.0347112,5.94965346 C38.3209279,5.66343676 38.556766,5.34344982 38.7250637,4.93876044 C38.8933613,4.53462468 38.9775101,4.12993531 38.9775101,3.67542098 C38.9775101,3.23751497 38.8933613,2.83337921 38.7250637,2.42868984 C38.556766,2.02455408 38.3209279,1.6874052 38.0347112,1.40118851 C37.7484945,1.11497181 37.3947373,0.879133683 37.0072099,0.71028244 C36.6196824,0.541984808 36.1983848,0.457835992 35.7438704,0.457835992 C35.2888025,0.457835992 34.8680584,0.541984808 34.480531,0.71028244 C34.0763952,0.878580072 33.7392463,1.1144182 33.4530296,1.40118851 C33.1668129,1.6874052 32.9309748,2.0411624 32.7626772,2.42868984 C32.5943795,2.81621728 32.5102307,3.23751497 32.5102307,3.67542098 C32.5102307,4.13048892 32.5943795,4.551233 32.7626772,4.93876044 C32.9309748,5.3268415 33.1668129,5.66343676 33.4530296,5.94965346 Z" id="Path" fill="#FF3333"></path>
                <path d="M36.8223039,9.84873313 L34.4810846,9.84873313 C33.7231916,9.84873313 33.1164344,10.4040046 33.1164344,11.0976787 L33.1164344,33.0538764 L38.1869541,33.0538764 L38.1869541,11.0976787 C38.1869541,10.4040046 37.5801969,9.84873313 36.8223039,9.84873313 Z" id="Path" fill="#FF3333"></path>
            </g>
        </g>
    </g>
</svg>